<?xml version="1.0" encoding="utf-8"?>
<!-- Generator: Adobe Illustrator 19.0.0, SVG Export Plug-In . SVG Version: 6.00 Build 0)  -->
<svg version="1.1" id="Layer_1" xmlns="http://www.w3.org/2000/svg" xmlns:xlink="http://www.w3.org/1999/xlink" x="0px" y="0px"
	 viewBox="0 0 230 230" style="enable-background:new 0 0 230 230;" xml:space="preserve">
<style type="text/css">
	.st0{fill-rule:evenodd;clip-rule:evenodd;fill:#FFFFFF;stroke:#000000;stroke-width:2;stroke-miterlimit:10;}
	.st1{fill-rule:evenodd;clip-rule:evenodd;fill:#E6E6E6;stroke:#000000;stroke-width:2;stroke-miterlimit:10;}
	.st2{fill-rule:evenodd;clip-rule:evenodd;fill:#FFFFFF;stroke:#000000;stroke-miterlimit:10;}
	.st3{fill-rule:evenodd;clip-rule:evenodd;fill:#E3240E;}
	.st4{fill:none;stroke:#000000;stroke-width:2;stroke-miterlimit:10;}
	.st5{fill-rule:evenodd;clip-rule:evenodd;fill:#FFFFFF;stroke:#000000;stroke-width:2;stroke-miterlimit:10;stroke-dasharray:3,3;}
	.st6{fill-rule:evenodd;clip-rule:evenodd;}
	.st7{fill-rule:evenodd;clip-rule:evenodd;fill:#FFFFFF;}
	.st8{fill-rule:evenodd;clip-rule:evenodd;fill:#E6E6E6;}
	.st9{fill:#E3240E;stroke:#E3240E;stroke-width:2;stroke-miterlimit:10;}
	.st10{fill:#FFFFFF;stroke:#000000;stroke-width:2;stroke-miterlimit:10;}
</style>
<circle id="XMLID_59_" class="st0" cx="157.9" cy="154.9" r="53.8"/>
<circle id="XMLID_58_" class="st1" cx="157.9" cy="154.9" r="40.3"/>
<circle id="XMLID_57_" class="st2" cx="157.9" cy="154.9" r="24"/>
<circle id="XMLID_56_" class="st3" cx="158.2" cy="155.2" r="7.7"/>
<polyline id="XMLID_55_" class="st4" points="157.9,156.1 219.9,114.7 219.9,106.7 208,114.7 208,122.7 219.9,114.7 228,117.1 
	215.2,124.7 "/>
<path id="XMLID_54_" class="st4" d="M215.2,124.7l-7.2-2.1L215.2,124.7z"/>
<line id="XMLID_53_" class="st0" x1="10.9" y1="224.6" x2="64.6" y2="224.6"/>
<line id="XMLID_52_" class="st5" x1="63" y1="224.6" x2="116.7" y2="224.6"/>
<path id="XMLID_36_" class="st6" d="M121.7,142.5c-1.8,19.5-5.5,25.8-14.3,39.9C96.5,200,82,213.1,64.9,222.3c-2,1-3.9,1.5-5.8,0.5
	c-24.7-12.9-40.8-32.4-51.3-58.1c-3.8-9.3-5.7-18.4-5.7-28.5c0-27.7,16.1-47.5,43.2-53.2c17.4-3.7,35.6-3,51.1,6.5
	c16.5,10.2,22,20.9,24.5,38.6C121.2,130.9,121.5,141,121.7,142.5z M41.2,161.2c2.1,3.7,4.1,7.1,6,10.6c2.8,5,2.8,5,8.3,3.1
	c5.2-1.7,5.3-1.7,5-7.1c-0.1-1.2-1-2.6-1.9-3.5c-1-1-2.5-1.4-3.7-2.3c-0.5-0.4-1-1.2-1-1.8c0-0.4,0.9-1.1,1.4-1.2
	c3.3-0.3,6.3-0.1,9.5,0c1.7,0.1,3.6,0.5,5.2,1.2c-1.3,1.1-2.4,2.4-3.8,3.3c-1.8,1.2-3.2,2.1-3.1,4.7c0.2,5,0,5,4.9,6.7
	c1.3,0.4,2.6,1.1,3.9,1.2c0.9,0.1,2.3-0.4,2.7-1.1c2.4-3.9,4.6-7.9,6.9-11.9c0.8-1.4,0.7-2.4-0.4-3.6c-2.8-3.4-5.4-6.9-8-10.4
	c-0.5-0.6-0.4-1.7-0.6-2.5c0.8,0.1,2.9,1.5,3.6,1.8c2.8,1.5,4.3,1.8,7.2,3.5c0.4-0.4,0.8-0.8,1.1-1.2c4.1-4.1,5.5-7.7,8.5-12.4
	c1.1-1.7,1.7-4.9,0.9-6.7c-6.6-14-21-21.6-36.5-19.6c-12.8,1.6-21.7,8.5-27,20.1c-0.4,0.9-0.8,3.3-0.4,4.1
	c3.2,5.6,6.6,11.2,9.9,16.7c3-1.8,6.1-3.5,8.9-5c0.7-0.4,1.7-1.1,2.6-1.2c-0.2,0.8-0.2,1.7-0.7,2.3
	C47.6,153.2,44.4,157.1,41.2,161.2z M79.7,153.4c1.8,2.3,3.3,4,4.4,5.9c0.6,1,0.9,2.6,0.4,3.5c-3.9,7.4-8,14.7-12.1,22
	c-0.4,0.7-1.6,1.5-2.4,1.5c-5.4,0.1-10.7,0.1-16.1,0c-0.9,0-2.2-0.8-2.6-1.6c-3.8-6.6-7.2-13.4-11.1-19.9c-1.7-2.9-1.9-5,0.7-7.3
	c1-0.9,1.6-2.3,2.6-3.9c-1.6,0.7-2.8,1.2-4.3,1.8c-3.5-5.7-6.9-11.4-10.3-17c-0.3,0-0.7,0.1-1,0.1c-0.4,5.1-0.9,10.2-1.1,15.3
	c-0.3,9,2.7,16.9,8.7,23.5c3.2,3.5,6.7,6.8,10.2,10c7.1,6.5,13.1,13.6,15.7,23.2c0,0.2,0.4,0.3,0.8,0.5c2.4-9.5,8.1-16.6,15.1-23
	c2.5-2.3,5-4.7,7.5-7c9.9-8.9,13.4-20.2,12.2-33.2c-0.3-3.1-1-6.2-1.5-9.3c-3.2,4.1-5.5,8.3-8.1,12.4
	C84.7,155.3,84.6,155.2,79.7,153.4z M114.9,163.9c5-10.8,7.4-29.9-3.2-42.5c-8.8-10.4-25-12.1-32.8-8.3c8.2,4.3,13.8,10.8,17.4,19.1
	c0.3,0.6,0.9,2.6,1.6,2.9c6.1,2.6,10.7,10,12.8,13.8C112.7,153.3,114.1,157.1,114.9,163.9z M45.3,112.9
	c-13.1-4.3-30.1,0.3-37.4,14.8c-5.3,10.4-3.9,20.9-0.7,31.5c0.2,0.7,1.7,5.8,2.3,7.1c0.1-1.5,0.3-6.9,0.4-7.5
	c2.4-11.8,5.7-16.2,14.1-22.5c2.8-1.7,3.9-4.6,5.3-7.5C32.7,121.8,38,116.7,45.3,112.9z M25.3,136.8c-0.1,0.1-0.8,0.4-1.5,0.8
	c-11.5,7.3-16.4,25.1-10,37.1c3,5.6,6.5,10.8,10.1,16.1c2.1,3.1,4.8,5.7,7.4,8.9c0.4-1.3,0.6-1.9,0.7-2.6c1.1-9.2-0.5-18-4.1-26.5
	c-1.6-3.8-3.2-7.9-3.4-11.9C24.3,151.4,25,144.1,25.3,136.8z M92.4,199.3c1.1-1.1,2.1-1.8,2.8-2.8c4.6-6.5,9.3-13,13.6-19.7
	c7.8-12,3.5-28.1-6-37c-1.4-1.3-3.2-2.3-5.4-3.9c0.4,2.2,0.7,3.5,1,4.8c2,9.8,1.9,19.4-2,28.9c-1.9,4.7-3.5,9.7-4.5,14.7
	C91,189.2,91,194.2,92.4,199.3z M63.2,108.5c0.2,0.3,0.4,0.5,0.7,0.8c2.6,0.4,5.2,0.6,7.7,1.3c2.2,0.6,4,0.5,6.2-0.2
	c15.9-5,34.1,1.7,41,17.5c0.2,0.4,0.6,0.8,1.1,1.6c-1.2-9.3-4.2-17.3-9.1-24.6c-3.2-4.7-7.2-8.2-13-9c-10.7-1.4-20.6,0.6-29.3,7.1
	C66.4,104.4,64.9,106.6,63.2,108.5z M61.1,108.8c-2.5-2.5-4.3-5-6.6-6.6c-8.3-5.8-17.8-7.8-27.8-6.4c-3.2,0.5-6.9,1.8-9.2,4
	c-8.1,7.9-12,18-13.6,29.6c0.5-0.6,0.8-0.8,0.9-1c6.8-16.4,26.2-23.6,42.9-17.4c0.6,0.2,1.3,0.4,2,0.3
	C53.1,110.5,56.5,109.8,61.1,108.8z M99,93.2c-1.6-1.1-2.6-1.9-3.7-2.4c-3.5-1.7-7-3.4-10.6-4.8c-8.4-3-18.1,1.8-21.2,10.1
	c-0.3,0.8-1,1.5-1.6,2.2c-0.5-0.7-1.2-1.4-1.6-2.2C57.2,87.8,47.7,83,39.4,85.9c-4.1,1.4-8,3.6-11.9,5.4c-0.8,0.4-1.4,1-2.5,1.7
	c14.6-1.1,27.1,1.5,36.9,12.5C71.6,94.6,84.2,92,99,93.2z M89.9,179.9c-0.2-0.2-0.5-0.5-0.7-0.7c-5.4,5.7-11.3,11.1-16.1,17.2
	c-3.3,4.2-5.7,9.2-7.8,14.2c-1.3,3.1-1.3,6.8-2.1,11.1c10.5-5.1,18.8-11.4,26.3-18.9c0.5-0.5,0.5-1.8,0.5-2.6
	c-0.2-3.3-0.9-6.6-0.9-9.9C89,186.8,89.5,183.3,89.9,179.9z M34.1,179.2c-0.2,1-0.3,1.3-0.3,1.6c1.5,6.5,1.7,13.1,0.2,19.7
	c-0.2,0.9,0.4,2.3,1.1,3c6.7,6.7,14.3,12.3,22.7,16.8c0.7,0.4,1.5,0.6,2.6,1c-0.1-8.4-2.1-15.9-7.2-21.9
	C47.3,192.3,40.7,186.1,34.1,179.2z M72.2,179.3c-7-4.4-13.8-4.1-20.6,0c1.8,4.6,1.8,4.6,6.6,4.6c2.5,0,5.1,0,7.6,0
	C70.5,184,70.5,184,72.2,179.3z M51.4,83.1c3.7,3.1,7.3,6.1,10.5,8.8c3.3-2.8,6.9-5.8,10.5-8.8C65.5,83.1,58.3,83.1,51.4,83.1z
	 M59.1,160.9c2.6,2.9,3.1,2.9,5.8,0C62.9,160.9,61.3,160.9,59.1,160.9z"/>
<path id="XMLID_32_" class="st7" d="M41.2,161.2c3.2-4.1,6.4-8.1,9.4-12.1c0.5-0.6,0.5-1.5,0.7-2.3c-0.9,0.1-1.9-0.1-2.6,0.3
	c-2.8,1.5-5.5,3.2-8.5,5c-3.3-5.6-6.7-11.1-10-16.7c-0.5-0.8-0.3-2.3,0.1-3.2c5.3-11.6,14.2-18.5,27-20.1c15.5-2,29.3,5.6,35.9,19.6
	c0.8,1.8,0.8,3.1-0.3,4.8c-3,4.7-5.7,9.5-8.5,14.3c-0.3,0.5-0.7,0.8-1.1,1.2c-2.9-1.7-5.6-3.4-8.4-4.9c-0.7-0.4-1.6-0.3-2.4-0.4
	c0.2,0.8,0.1,1.9,0.6,2.5c2.6,3.5,5.2,7,8,10.4c1,1.3,1.2,2.3,0.4,3.6c-2.3,3.9-4.5,8-6.9,11.9c-0.4,0.7-1.8,1.1-2.7,1.1
	c-1.3-0.1-2.6-0.8-3.9-1.2c-4.9-1.7-4.8-1.7-4.9-6.7c-0.1-2.6,1.4-3.5,3.1-4.7c1.4-0.9,2.5-2.2,3.8-3.3c-1.6-0.6-3.6-1.1-5.2-1.2
	c-3.3-0.1-6.3-0.3-9.5,0c-0.5,0.1-1.4,0.8-1.4,1.2c0,0.6,0.5,1.4,1,1.8c1.2,0.9,2.7,1.3,3.7,2.3c0.9,0.9,1.8,2.3,1.9,3.5
	c0.3,5.4,0.2,5.4-5,7.1c-5.5,1.8-5.5,1.8-8.3-3.1C45.3,168.4,43.3,164.9,41.2,161.2z M50,131.2c-0.5,0-1.1-0.1-1.8-0.1
	c-4.2-0.2-8.1,0.6-11.8,2.7c-0.6,0.3-0.8,1.3-1.2,2c0.8,0.1,1.5,0.4,2.2,0.2c0.9-0.2,1.7-0.9,2.7-1.1c0.6-0.1,1.7,0,1.9,0.5
	c2.1,3.1,4.8,4.3,8.7,2.8c0,1.5-0.1,2.6,0,3.6c0.1,0.7,0.7,1.3,1.1,2c0.4-0.6,1.2-1.3,1.2-1.9c0.1-3.5,0.2-7,0-10.5
	c-0.1-1.2-0.8-2.4-1.2-3.7C51.3,128.7,50.7,129.8,50,131.2z M73.1,138.4c4.7,0.6,6.2,0.3,8-2.4c1.1-1.7,2.1-1.6,3.6-0.9
	c0.8,0.4,1.5,0.9,2.4,1.1c0.4,0.1,1.2-0.2,1.4-0.5c0.2-0.3,0-1.2-0.3-1.5c-0.5-0.5-1.3-1-2-1.2c-4.2-1-8.4-1.9-13-2.9
	c0,0.1,0.1-0.6-0.2-1.2c-0.2-0.5-0.7-0.9-1.1-1.4c-0.4,0.4-1.1,0.9-1.1,1.3c-0.1,4.5-0.1,9,0,13.4c0,0.4,0.8,0.8,1.3,1.2
	c0.3-0.4,0.9-0.8,1-1.2C73.1,141.2,73.1,139.8,73.1,138.4z"/>
<path id="XMLID_31_" class="st8" d="M79.7,153.4c4.9,1.9,5,1.9,7.7-2.4c2.6-4.1,4.9-8.3,8.1-12.4c0.5,3.1,1.2,6.2,1.5,9.3
	c1.2,13-2.3,24.3-12.2,33.2c-2.5,2.3-5,4.7-7.5,7c-6.9,6.4-12.7,13.5-15.1,23c-0.4-0.2-0.8-0.3-0.8-0.5c-2.5-9.5-8.6-16.7-15.7-23.2
	c-3.5-3.2-7-6.5-10.2-10c-6-6.6-9-14.5-8.7-23.5c0.2-5.1,0.7-10.2,1.1-15.3c0.3,0,0.7-0.1,1-0.1c3.4,5.7,6.9,11.3,10.3,17
	c1.5-0.6,2.6-1.1,4.3-1.8c-1,1.6-1.6,3-2.6,3.9c-2.6,2.3-2.4,4.4-0.7,7.3c3.9,6.5,7.3,13.3,11.1,19.9c0.5,0.8,1.7,1.6,2.6,1.6
	c5.4,0.1,10.7,0.1,16.1,0c0.8,0,2-0.8,2.4-1.5c4.1-7.3,8.2-14.6,12.1-22c0.5-0.9,0.1-2.5-0.4-3.5C83,157.3,81.5,155.7,79.7,153.4z"
	/>
<path id="XMLID_30_" class="st3" d="M114.9,163.9c-0.9-5.9-3.2-12.4-5.3-16.9c-4.4-6.2-4.9-7.7-11.7-11.9c-0.6-0.3-1.3-2.3-1.6-2.9
	c-3.6-8.3-9.2-14.8-17.4-19.1c7.8-3.7,24-2.1,32.8,8.3C122.3,134,119.9,153.1,114.9,163.9z"/>
<path id="XMLID_29_" class="st3" d="M45.3,112.9c-7.3,3.8-12.6,9-16,15.8c-1.4,2.9-2.5,5.8-5.3,7.5c-9.5,7.5-11.1,11.8-14.1,22.5
	c-0.1,0.7-0.2,6-0.4,7.5c-0.6-1.4-2.1-6.5-2.3-7.1c-3.2-10.6-4.6-21,0.7-31.5C15.2,113.2,32.2,108.5,45.3,112.9z"/>
<path id="XMLID_28_" class="st7" d="M25.3,136.8c-0.3,7.3-1,14.6-0.7,21.8c0.2,4,1.8,8.1,3.4,11.9c3.5,8.6,5.2,17.3,4.1,26.5
	c-0.1,0.7-0.4,1.3-0.7,2.6c-2.7-3.2-5.4-5.9-7.4-8.9c-3.6-5.2-7.1-10.5-10.1-16.1c-6.4-11.9-1.4-29.8,10-37.1
	C24.4,137.2,25.1,136.9,25.3,136.8z"/>
<path id="XMLID_27_" class="st7" d="M92.7,199.3c-1.5-5-1.4-10-0.4-14.7c1-5,2.5-9.9,4.4-14.6c3.8-9.4,3.9-18.9,2-28.6
	c-0.3-1.3-0.8-3.3-1.2-5.5c2.2,1.6,5.2,3.8,6.6,5.1c9.2,11.1,12.6,24.2,4.9,36c-4.3,6.6-8.9,13-13.5,19.4
	C94.9,197.5,93.8,198.2,92.7,199.3z"/>
<path id="XMLID_26_" class="st8" d="M63.2,108.5c1.7-1.9,3.2-4.1,5.2-5.6c8.7-6.5,18.6-8.5,29.3-7.1c5.8,0.8,9.8,4.3,13,9
	c4.9,7.3,8,15.3,9.1,24.6c-0.6-0.8-1-1.1-1.1-1.6c-6.9-15.8-25-22.4-41-17.5c-2.1,0.7-4,0.8-6.2,0.2c-2.5-0.7-5.1-0.9-7.7-1.3
	C63.6,109,63.4,108.7,63.2,108.5z"/>
<path id="XMLID_25_" class="st8" d="M61.1,108.8c-4.6,1-8,1.7-11.4,2.3c-0.6,0.1-1.3-0.1-2-0.3c-16.7-6.1-36.1,1.1-42.9,17.4
	c-0.1,0.2-0.4,0.4-0.9,1c1.6-11.6,5.5-21.7,13.6-29.6c2.2-2.2,6-3.5,9.2-4c10-1.4,19.4,0.6,27.8,6.4
	C56.8,103.8,58.6,106.3,61.1,108.8z"/>
<path id="XMLID_24_" class="st7" d="M101.3,94.6c-13.5-2.1-27.1-0.2-39.3,12.8c-9.7-11-20.3-14-39.7-12.6c1.1-0.8,4.5-3,5.2-3.4
	c3.9-1.9,7.8-4,11.9-5.4c8.3-2.9,17.8,1.9,20.9,10.2c0.3,0.8,1,1.5,1.6,2.2c0.5-0.7,1.3-1.4,1.6-2.2C66.6,87.8,76.3,83,84.7,86
	c3.6,1.3,7.1,3.1,10.6,4.8C96.4,91.3,99.6,93.6,101.3,94.6z"/>
<path id="XMLID_23_" class="st3" d="M89.9,179.9c-0.3,3.4-0.9,6.9-0.9,10.3c0,3.3,0.6,6.6,0.9,9.9c0.1,0.9,0.1,2.1-0.5,2.6
	c-7.5,7.5-15.8,13.8-26.3,18.9c0.7-4.2,0.8-7.9,2.1-11.1c2.1-5,4.5-10,7.8-14.2c4.9-6.1,10.7-11.5,16.1-17.2
	C89.4,179.4,89.6,179.7,89.9,179.9z"/>
<path id="XMLID_22_" class="st3" d="M34.1,179.2c6.6,6.9,13.2,13.2,19.1,20.1c5.1,6,7,13.5,7.2,21.9c-1.1-0.4-1.9-0.7-2.6-1
	c-8.4-4.5-15.9-10.1-22.7-16.8c-0.7-0.7-1.3-2.1-1.1-3c1.5-6.6,1.3-13.1-0.2-19.7C33.7,180.5,33.9,180.2,34.1,179.2z"/>
<path id="XMLID_21_" class="st7" d="M72.2,179.3c-1.7,4.6-1.7,4.6-6.4,4.6c-2.5,0-5.1,0-7.6,0c-4.8,0-4.8,0-6.6-4.6
	C58.4,175.2,65.2,175,72.2,179.3z"/>
<path id="XMLID_20_" class="st3" d="M51.4,83.1c6.9,0,14.1,0,21,0c-3.7,3.1-7.2,6.1-10.5,8.8C58.7,89.2,55.1,86.2,51.4,83.1z"/>
<path id="XMLID_19_" class="st8" d="M59.1,160.9c2.2,0,3.8,0,5.8,0C62.2,163.8,61.7,163.8,59.1,160.9z"/>
<path id="XMLID_16_" class="st6" d="M50,131.2c0.8-1.4,1.4-2.5,1.9-3.6c0.4,1.2,1.1,2.4,1.2,3.7c0.2,3.5,0.1,7,0,10.5
	c0,0.7-0.8,1.3-1.2,1.9c-0.4-0.7-1-1.3-1.1-2c-0.2-1,0-2.1,0-3.6c-3.9,1.5-6.6,0.3-8.7-2.8c-0.3-0.4-1.3-0.6-1.9-0.5
	c-0.9,0.2-1.7,0.9-2.7,1.1c-0.7,0.2-1.5-0.1-2.2-0.2c0.4-0.7,0.6-1.6,1.2-2c3.6-2.1,7.6-2.9,11.8-2.7
	C48.8,131.1,49.5,131.2,50,131.2z M50.7,133.9c-2.2,0-4.1,0-6,0C46.3,137,48.3,137.1,50.7,133.9z"/>
<path id="XMLID_13_" class="st6" d="M73.1,138.4c0,1.4,0.1,2.7,0,4c0,0.4-0.6,0.8-1,1.2c-0.4-0.4-1.3-0.8-1.3-1.2
	c-0.1-4.5-0.1-9,0-13.4c0-0.5,0.7-0.9,1.1-1.3c0.4,0.5,0.9,0.9,1.1,1.4c0.2,0.6,0.2,1.3,0.2,1.2c4.6,1,8.8,1.9,13,2.9
	c0.7,0.2,1.5,0.6,2,1.2c0.3,0.3,0.5,1.1,0.3,1.5c-0.2,0.4-1,0.6-1.4,0.5c-0.8-0.2-1.6-0.7-2.4-1.1c-1.5-0.8-2.5-0.8-3.6,0.9
	C79.3,138.8,77.8,139,73.1,138.4z M79.4,134c-2.2,0-4.1,0-6.3,0C75.5,137,77,137,79.4,134z"/>
<path id="XMLID_12_" class="st7" d="M50.7,133.9c-2.4,3.1-4.3,3-6,0C46.6,133.9,48.5,133.9,50.7,133.9z"/>
<path id="XMLID_11_" class="st7" d="M79.4,134c-2.4,3-3.9,3-6.3,0C75.3,134,77.2,134,79.4,134z"/>
<rect id="XMLID_10_" x="57.7" y="220.1" class="st0" width="9" height="9"/>
<rect id="XMLID_9_" x="116" y="218.9" class="st0" width="10.2" height="10.2"/>
<rect id="XMLID_8_" x="7" y="218.9" class="st0" width="10.2" height="10.2"/>
<polygon id="XMLID_7_" class="st9" points="21.8,60 28.6,56.4 27.3,64 32.8,69.4 25.2,70.5 21.8,77.4 18.4,70.5 10.8,69.4 16.3,64 
	15,56.4 "/>
<polygon id="XMLID_6_" class="st10" points="44.8,31.6 51.6,28 50.3,35.6 55.8,41 48.2,42.1 44.8,49 41.4,42.1 33.8,41 39.3,35.6 
	38,28 "/>
<polygon id="XMLID_5_" class="st9" points="85.5,27.5 93,29.3 87,34.1 87.6,41.8 81.2,37.6 74.1,40.5 76.1,33.1 71.1,27.2 
	78.8,26.9 82.8,20.3 "/>
<polygon id="XMLID_4_" class="st10" points="122.9,30.6 130.2,33.2 123.7,37.3 123.4,45 117.5,40.1 110.1,42.3 112.9,35.1 
	108.6,28.7 116.3,29.2 121,23.1 "/>
<polygon id="XMLID_3_" class="st9" points="148.9,44.8 155.7,41.3 154.4,48.8 159.9,54.2 152.3,55.3 148.9,62.2 145.5,55.3 
	137.9,54.2 143.4,48.8 142.1,41.3 "/>
<polygon id="XMLID_2_" class="st10" points="171.2,77 178.7,78.4 173.1,83.6 174.1,91.2 167.4,87.4 160.5,90.8 162.1,83.2 
	156.7,77.7 164.4,76.8 168,70.1 "/>
</svg>
