<?xml version="1.0" encoding="utf-8"?>
<!-- Generator: Adobe Illustrator 19.0.0, SVG Export Plug-In . SVG Version: 6.00 Build 0)  -->
<svg version="1.1" id="Layer_1" xmlns="http://www.w3.org/2000/svg" xmlns:xlink="http://www.w3.org/1999/xlink" x="0px" y="0px"
	 viewBox="0 0 230 230" style="enable-background:new 0 0 230 230;" xml:space="preserve">
<style type="text/css">
	.st0{fill:none;stroke:#000000;stroke-width:2;stroke-miterlimit:10;}
	.st1{fill:#E6E6E6;stroke:#000000;stroke-width:2;stroke-miterlimit:10;}
	.st2{fill:#FFFFFF;stroke:#000000;stroke-width:2;stroke-miterlimit:10;}
	.st3{fill:#E3240E;}
	.st4{fill:none;stroke:#000000;stroke-width:2;stroke-miterlimit:10;stroke-dasharray:6,4;}
	.st5{fill:none;stroke:#000000;stroke-width:2;stroke-miterlimit:10;stroke-dasharray:11,7;}
	.st6{fill:none;stroke:#000000;stroke-width:2;stroke-miterlimit:10;stroke-dasharray:12,7;}
	.st7{fill:#FFFFFF;}
	.st8{font-family:'NirmalaUI';}
	.st9{font-size:5.5869px;}
</style>
<path id="XMLID_70_" class="st0" d="M2,73v127h197V73H2z M69,177h23.1H92 M51,177H26"/>
<rect id="XMLID_31_" x="10" y="80" class="st1" width="181" height="97"/>
<rect id="XMLID_30_" x="26" y="55" class="st2" width="93" height="66"/>
<rect id="XMLID_29_" x="27" y="56" class="st3" width="91" height="12"/>
<circle id="XMLID_28_" class="st2" cx="102.8" cy="188.9" r="6.3"/>
<rect id="XMLID_15_" x="77" y="200" class="st2" width="49" height="22"/>
<rect id="XMLID_14_" x="61" y="222" class="st2" width="79" height="6"/>
<g id="XMLID_56_">
	<g id="XMLID_61_">
		<line id="XMLID_13_" class="st0" x1="60.6" y1="82.2" x2="48.6" y2="91.9"/>
		<line id="XMLID_12_" class="st0" x1="48.6" y1="91.9" x2="60.9" y2="101.8"/>
	</g>
	<g id="XMLID_58_">
		<line id="XMLID_11_" class="st0" x1="82.1" y1="82.2" x2="94.2" y2="91.9"/>
		<line id="XMLID_10_" class="st0" x1="94.2" y1="91.9" x2="81.8" y2="101.8"/>
	</g>
	<line id="XMLID_9_" class="st0" x1="76.7" y1="82.2" x2="67.5" y2="101.8"/>
</g>
<polyline id="XMLID_8_" class="st0" points="26,177 50.1,177 51,177 "/>
<polyline id="XMLID_7_" class="st0" points="69,177 92.1,177 92,177 "/>
<path id="XMLID_6_" class="st2" d="M93.5,172c-0.4,1.7-0.8,3-1.4,5H68.8c3.7-3,6.1-7.4,6.1-12.4c0-8.5-6.9-15.5-15.5-15.5
	c-8.5,0-15.5,7-15.5,15.5c0,5,2.4,9.4,6.1,12.4h-24c-0.4-1-0.8-2.3-1.1-3.5c3-1.3,5.1-4.3,5.1-7.8c0-3.6-2.3-6.8-5.6-7.9
	c0.8-4,2.2-7.7,4.2-11.1c3.1,1.3,6.8,0.8,9.2-1.7c2.6-2.6,3.1-6.5,1.6-9.7c3.3-2.2,6.9-3.8,10.8-4.8c1.2,3.2,4.2,5.4,7.8,5.4
	c3.7,0,6.9-2.4,7.9-5.8c4,0.8,7.7,2.3,11.1,4.3c-1.4,3.1-0.8,6.8,1.7,9.3c2.6,2.6,6.5,3.1,9.6,1.6c2.1,3.3,3.8,7,4.7,10.9
	c-3.1,1.2-5.3,4.3-5.3,7.8C88,167.7,90.3,170.9,93.5,172z"/>
<rect id="XMLID_5_" x="140" y="96" class="st2" width="74" height="119"/>
<rect id="XMLID_4_" x="145" y="104" class="st3" width="63" height="92"/>
<circle id="XMLID_3_" class="st2" cx="177.1" cy="204.7" r="4.7"/>
<g id="XMLID_2_">
	<g id="XMLID_40_">
		<line id="XMLID_50_" class="st0" x1="69" y1="55" x2="69" y2="49"/>
		<line id="XMLID_49_" class="st4" x1="69" y1="45" x2="69" y2="37"/>
		<polyline id="XMLID_48_" class="st0" points="69,35 69,30 75,30 		"/>
		<line id="XMLID_47_" class="st5" x1="81" y1="30" x2="219" y2="30"/>
		<polyline id="XMLID_46_" class="st0" points="223,30 228,30 228,35 		"/>
		<line id="XMLID_45_" class="st6" x1="228" y1="43" x2="228" y2="153"/>
		<polyline id="XMLID_44_" class="st0" points="228,156 228,162 223,162 		"/>
		<line id="XMLID_43_" class="st0" x1="222" y1="162" x2="217" y2="162"/>
		<g id="XMLID_41_">
			<polygon id="XMLID_42_" points="220.6,158 217.2,161.5 220.6,165 217.7,165 214.3,161.5 217.7,158 			"/>
		</g>
	</g>
</g>
<text id="XMLID_1_" transform="matrix(1 0 0 1 152.3789 114.3999)"><tspan x="0" y="0" class="st7 st8 st9">&lt;html&gt;</tspan><tspan x="0" y="6.7" class="st7 st8 st9">  &lt;head&gt;</tspan><tspan x="0" y="13.4" class="st7 st8 st9">      Webmaddy </tspan><tspan x="0" y="20.1" class="st7 st8 st9">  &lt;/head&gt;</tspan><tspan x="0" y="26.8" class="st7 st8 st9">  &lt;body&gt;</tspan><tspan x="0" y="33.5" class="st7 st8 st9">    Hello World! </tspan><tspan x="0" y="40.2" class="st7 st8 st9">  &lt;/body&gt;</tspan><tspan x="0" y="46.9" class="st7 st8 st9">...............</tspan><tspan x="0" y="53.6" class="st7 st8 st9">......</tspan></text>
</svg>
