<?xml version="1.0" encoding="utf-8"?>
<!-- Generator: Adobe Illustrator 19.0.0, SVG Export Plug-In . SVG Version: 6.00 Build 0)  -->
<svg version="1.1" id="Layer_1" xmlns="http://www.w3.org/2000/svg" xmlns:xlink="http://www.w3.org/1999/xlink" x="0px" y="0px"
	 viewBox="0 0 230 230" style="enable-background:new 0 0 230 230;" xml:space="preserve">
<style type="text/css">
	.st0{fill:#E3240E;}
	.st1{fill:none;stroke:#000000;stroke-width:2;stroke-miterlimit:10;}
	.st2{fill:#E6E6E6;stroke:#000000;stroke-width:2;stroke-miterlimit:10;}
	.st3{fill:#E3240E;stroke:#000000;stroke-width:2;stroke-miterlimit:10;}
	.st4{fill:#FFFFFF;stroke:#000000;stroke-width:2;stroke-miterlimit:10;}
	.st5{fill:#FFFFFF;stroke:#000000;stroke-miterlimit:10;}
	.st6{font-family:'NirmalaUI';}
	.st7{font-size:26.2652px;}
	.st8{fill:#E6E6E6;stroke:#000000;stroke-width:2;stroke-miterlimit:10;stroke-dasharray:11,7;}
</style>
<polyline id="XMLID_38_" class="st0" points="75,155.5 75,155.3 67,158.4 67,158.5 67,219.4 67,219.4 75,221.6 75,221.5 "/>
<polyline id="XMLID_37_" class="st1" points="23.9,140.7 101.3,78.7 163,85.4 209,39.8 "/>
<polygon id="XMLID_36_" class="st1" points="104,144.7 104,229 75.3,221.6 67.2,219.4 47,214.2 47,166 67.2,158.4 75.4,155.3 "/>
<rect id="XMLID_35_" x="3" y="166" class="st2" width="44" height="48"/>
<rect id="XMLID_34_" x="18" y="201" class="st3" width="11" height="28"/>
<circle id="XMLID_33_" class="st3" cx="23.6" cy="201.4" r="5.8"/>
<polyline id="XMLID_32_" class="st3" points="133,228 115,228 115,200 133,200 133,200.2 "/>
<line id="XMLID_31_" class="st1" x1="163.4" y1="204.6" x2="163.4" y2="204.6"/>
<line id="XMLID_30_" class="st1" x1="163" y1="228" x2="133" y2="228"/>
<path id="XMLID_29_" class="st1" d="M133,200.2c0,0,3.8-1.7,7.5-7.3L140,181c0,0,10-4,11.7,13H164"/>
<line id="XMLID_28_" class="st1" x1="163.4" y1="216.3" x2="163.4" y2="216.3"/>
<path id="XMLID_27_" class="st4" d="M163.4,219.6c0.1,0,0.2,0,0.3,0c2.3,0,4.2,1.9,4.2,4.2c0,2.3-1.9,4.2-4.2,4.2
	c-0.1,0-0.2,0-0.3,0"/>
<path id="XMLID_26_" class="st4" d="M163.4,219.5c0.1,0,0.2,0,0.3,0c2.3,0,4.2-1.9,4.2-4.2c0-2.3-1.9-4.2-4.2-4.2
	c-0.1,0-0.2,0-0.3,0"/>
<path id="XMLID_25_" class="st4" d="M163.4,210.7c0.1,0,0.3,0.2,0.4,0.2c2.3,0,4.2-2.1,4.2-4.5c0-2.1-1.6-3.4-3.6-4.4c0,0,0,0,0,0
	c-0.2,0-0.4,0.3-0.6,0.3c-0.1,0-0.3,0.2-0.4,0.2c-0.1,0-0.4,0.2-0.4,0.2V202"/>
<path id="XMLID_24_" class="st4" d="M163.2,202.6c0.1,0,0.2,0,0.3,0c0.1,0,0.2,0,0.3,0c0.2,0,0.4,0,0.6,0c2-0.3,3.6-2,3.6-4.2
	c0-2.3-1.9-4.2-4.2-4.2c-0.1,0-0.2,0-0.3,0"/>
<polyline id="XMLID_23_" class="st2" points="163.6,165 170.5,165 170.5,135 124,135 124,165 149.3,165 "/>
<polyline id="XMLID_22_" class="st2" points="149.3,165 149.3,175.6 163.6,165 "/>
<g id="XMLID_19_">
	<polyline id="XMLID_21_" class="st3" points="216.4,171.7 223.3,171.7 223.3,146.7 176.8,146.7 176.8,171.7 202.1,171.7 	"/>
	<polyline id="XMLID_20_" class="st3" points="202.1,171.7 202.1,182.3 216.4,171.7 	"/>
</g>
<rect id="XMLID_18_" x="72.3" y="70" transform="matrix(0.6202 -0.7844 0.7844 0.6202 -51.7732 99.9966)" class="st3" width="10.2" height="67"/>
<circle id="XMLID_17_" class="st2" cx="40.9" cy="73.5" r="38.5"/>
<circle id="XMLID_16_" class="st5" cx="40.4" cy="73" r="32"/>
<text id="XMLID_15_" transform="matrix(1 0 0 1 18.4995 83.0942)" class="st6 st7">SEO</text>
<line id="XMLID_14_" class="st8" x1="141" y1="128.2" x2="228" y2="93"/>
<line id="XMLID_13_" class="st8" x1="190" y1="135" x2="228" y2="128.2"/>
<line id="XMLID_12_" class="st8" x1="181" y1="194.2" x2="228" y2="195.6"/>
<line id="XMLID_11_" class="st1" x1="202.1" y1="204.4" x2="202.1" y2="227"/>
<line id="XMLID_10_" class="st1" x1="190" y1="215.7" x2="214" y2="215.7"/>
<circle id="XMLID_9_" class="st4" cx="22.6" cy="140.5" r="10.2"/>
<circle id="XMLID_8_" class="st0" cx="22.6" cy="140.5" r="4.4"/>
<circle id="XMLID_7_" class="st4" cx="101.9" cy="81" r="13.2"/>
<circle id="XMLID_6_" class="st0" cx="101.9" cy="81" r="5.7"/>
<circle id="XMLID_5_" class="st4" cx="163" cy="85.4" r="15.5"/>
<circle id="XMLID_4_" class="st0" cx="163" cy="85.4" r="6.7"/>
<circle id="XMLID_3_" class="st4" cx="205" cy="43.8" r="11.5"/>
<circle id="XMLID_2_" class="st0" cx="205" cy="43.8" r="5"/>
</svg>
